{"title":"Bezubaan (1982) 1CD DvDRip X264 AAC","uid":8353960,"size":774000840,"categoryP":"video","categoryS":"movies","magnet":"?xt=urn:btih:3ecd8a10986544f2e9bb96bac21b5e2c1fa573a4&amp;dn=Bezubaan+%281982%29+1CD+DvDRip+X264+AAC&amp;tr=udp%3A%2F%2Ftracker.openbittorrent.com%3A80&amp;tr=udp%3A%2F%2Fopen.demonii.com%3A1337&amp;tr=udp%3A%2F%2Ftracker.coppersurfer.tk%3A6969&amp;tr=udp%3A%2F%2Fexodus.desync.com%3A6969","seeders":1,"leechers":0,"uploader":"Bclassics","files":1,"time":1365435009,"description":"-: Cover :- \n\n\n\n    &lt;a href=&quot;\thttp://desibbrg.org/images/06294343420381078623.jpg&quot; rel=&quot;nofollow&quot; target=&quot;_NEW&quot;&gt;\thttp://desibbrg.org/images/06294343420381078623.jpg&lt;/a&gt;\n\n\n\n-: Screens :-\n\n\n\n\n    &lt;a href=&quot;\thttp://desibbrg.org/images/91087472529582183302.jpg&quot; rel=&quot;nofollow&quot; target=&quot;_NEW&quot;&gt;\thttp://desibbrg.org/images/91087472529582183302.jpg&lt;/a&gt;\n    &lt;a href=&quot;\thttp://desibbrg.org/images/53519257092636818018.jpg&quot; rel=&quot;nofollow&quot; target=&quot;_NEW&quot;&gt;\thttp://desibbrg.org/images/53519257092636818018.jpg&lt;/a&gt;\n    &lt;a href=&quot;\thttp://desibbrg.org/images/97730893974381896774.jpg&quot; rel=&quot;nofollow&quot; target=&quot;_NEW&quot;&gt;\thttp://desibbrg.org/images/97730893974381896774.jpg&lt;/a&gt;\n    &lt;a href=&quot;\thttp://desibbrg.org/images/88129764830248068258.jpg&quot; rel=&quot;nofollow&quot; target=&quot;_NEW&quot;&gt;\thttp://desibbrg.org/images/88129764830248068258.jpg&lt;/a&gt;\n    &lt;a href=&quot;\thttp://desibbrg.org/images/80674989588435879525.jpg&quot; rel=&quot;nofollow&quot; target=&quot;_NEW&quot;&gt;\thttp://desibbrg.org/images/80674989588435879525.jpg&lt;/a&gt;\n    &lt;a href=&quot;\thttp://desibbrg.org/images/09797044429273691081.jpg&quot; rel=&quot;nofollow&quot; target=&quot;_NEW&quot;&gt;\thttp://desibbrg.org/images/09797044429273691081.jpg&lt;/a&gt;\n    &lt;a href=&quot;\thttp://desibbrg.org/images/88105638284273945677.jpg&quot; rel=&quot;nofollow&quot; target=&quot;_NEW&quot;&gt;\thttp://desibbrg.org/images/88105638284273945677.jpg&lt;/a&gt;\n    &lt;a href=&quot;\thttp://desibbrg.org/images/66332921049358011085.jpg&quot; rel=&quot;nofollow&quot; target=&quot;_NEW&quot;&gt;\thttp://desibbrg.org/images/66332921049358011085.jpg&lt;/a&gt;\n    &lt;a href=&quot;\thttp://desibbrg.org/images/22827858873608583311.jpg&quot; rel=&quot;nofollow&quot; target=&quot;_NEW&quot;&gt;\thttp://desibbrg.org/images/22827858873608583311.jpg&lt;/a&gt;\n    &lt;a href=&quot;\thttp://desibbrg.org/images/08817438824460735444.jpg&quot; rel=&quot;nofollow&quot; target=&quot;_NEW&quot;&gt;\thttp://desibbrg.org/images/08817438824460735444.jpg&lt;/a&gt;\n    &lt;a href=&quot;\thttp://desibbrg.org/images/80402982401543472265.jpg&quot; rel=&quot;nofollow&quot; target=&quot;_NEW&quot;&gt;\thttp://desibbrg.org/images/80402982401543472265.jpg&lt;/a&gt;\n    &lt;a href=&quot;\thttp://desibbrg.org/images/99174678045828334568.jpg&quot; rel=&quot;nofollow&quot; target=&quot;_NEW&quot;&gt;\thttp://desibbrg.org/images/99174678045828334568.jpg&lt;/a&gt;\n    &lt;a href=&quot;\thttp://desibbrg.org/images/54090566205207344284.jpg&quot; rel=&quot;nofollow&quot; target=&quot;_NEW&quot;&gt;\thttp://desibbrg.org/images/54090566205207344284.jpg&lt;/a&gt;\n    &lt;a href=&quot;\thttp://desibbrg.org/images/61400950733603940085.jpg&quot; rel=&quot;nofollow&quot; target=&quot;_NEW&quot;&gt;\thttp://desibbrg.org/images/61400950733603940085.jpg&lt;/a&gt;\n\n\n\n\n\n-: Info :-  \n\n\n\nGeneral\n\nFormat                           : MP4 Video\nFile size                        : 738 MiB\nDuration                         : 2h 14mn\nOverall bit rate                 : 766 Kbps\n\nVideo\nFormat                           : AVC\nFormat/Info                      : Advanced Video Codec\nFormat profile                   : &lt;a class=&quot;__cf_email__&quot; href=&quot;/cdn-cgi/l/email-protection&quot; data-cfemail=&quot;0449656d6a4448372a34&quot;&gt;[email&amp;#160;protected]&lt;/a&gt;&lt;script cf-hash='f9e31' type=&quot;text/javascript&quot;&gt;\n/* &lt;![CDATA[ */!function(){try{var t=&quot;currentScript&quot;in document?document.currentScript:function(){for(var t=document.getElementsByTagName(&quot;script&quot;),e=t.length;e--;)if(t[e].getAttribute(&quot;cf-hash&quot;))return t[e]}();if(t&amp;&amp;t.previousSibling){var e,r,n,i,c=t.previousSibling,a=c.getAttribute(&quot;data-cfemail&quot;);if(a){for(e=&quot;&quot;,r=parseInt(a.substr(0,2),16),n=2;a.length-n;n+=2)i=parseInt(a.substr(n,2),16)^r,e+=String.fromCharCode(i);e=document.createTextNode(e),c.parentNode.replaceChild(e,c)}}}catch(u){}}();/* ]]&gt; */&lt;/script&gt;\nFormat settings, CABAC           : Yes\nFormat settings, ReFrames        : 3 frames\n\nDuration                         : 2h 14mn\nBit rate                         : 628 Kbps\nWidth                            : 640 pixels\nHeight                           : 480 pixels\nDisplay aspect ratio             : 4:3\nFrame rate mode                  : Constant\nFrame rate                       : 29.970 fps\nColor space                      : YUV\nChroma subsampling               : 4:2:0\nBit depth                        : 8 bits\nScan type                        : Progressive\nBits/(Pixel*Frame)               : 0.068\nStream size                      : 606 MiB (82%)\n\nAudio\nFormat                           : AAC\nFormat/Info                      : Advanced Audio Codec\nFormat version                   : Version 4\nFormat profile                   : LC\nFormat settings, SBR             : No\nDuration                         : 2h 14mn\nBit rate                         : 129 Kbps\nChannel(s)                       : 2 channels\nChannel positions                : Front: L R\nSampling rate                    : 44.1 KHz\nBit depth                        : 16 bits\nStream size                      : 124 MiB (17%)\n\n\n &lt;a href=&quot;\nhttp://www.imdb.com/title/tt0082071/&quot; rel=&quot;nofollow&quot; target=&quot;_NEW&quot;&gt;\nhttp://www.imdb.com/title/tt0082071/&lt;/a&gt;\n\n\n    Release Date\n    24 Dec 1982\n\n    Genre\n    Drama,Romance\n\n    Producer\n    Pranlal Mehta\n\n    Star Cast\n    Shakti Kapoor\n    Reena Roy.... Kalpana\n    Raj Kiran\n    Naseeruddin Shah.... Shivnath\n    Shashi Kapoor.... Raman\n    Reeta Bhaduri.... Meerabai\n    Seema Deo.... Vidya\n    Iftekhar\n    Madhu Malini\n    Roohi\n    T P Jain\n    Yunus Parvez\n    Raj Rani.... as Raaj Rani\n    Guddi Maruti\n    Raja Duggal\n    Baby Shabana\n    Jay Shree T\n    Nadeem\n\n    Choreographers\n    Vijay\n\n    Ex. Co Producers\n    Deepak Shirke\n\n\nMusic Director\n\n    Ram Lakshman\n\nColor\nC\nLanguage\nHindi\nDirector\n\n    Babu\n    Bapu\n    Deepak Shivdasani\n\nSingers\n\n    Kishore Kumar\n    Asha Bhosle\n    Bheroze Chatterjee\n    Lata Mangeshkar\n    Vinod Sehgal\n\nLyricist\n\n    Rawinder Rawal\n\nEditor\n\n    N Chandra\n\nCinematography\n\n    Thomas Xavier\n    Baba Azmi\n\nArt\n\n    Bijon Das Gupta\n\nDialogue\n\n    Ved Rahi\n\nPublicity Designers\n\n    Studio Link\n\n    Sound\n    Kaushik\n\n\n\nA young woman must try to keep a one-night stand that she had in college a secret from her husband who happens to be one of his best friends, and thowart a persistant blackmailer intent on collecting money from her to keep quite about it. \n\n\n","torrent":{"xt":"urn:btih:3ecd8a10986544f2e9bb96bac21b5e2c1fa573a4","amp;dn":"Bezubaan+%281982%29+1CD+DvDRip+X264+AAC","amp;tr":["udp%3A%2F%2Ftracker.openbittorrent.com%3A80","udp%3A%2F%2Fopen.demonii.com%3A1337","udp%3A%2F%2Ftracker.coppersurfer.tk%3A6969","udp%3A%2F%2Fexodus.desync.com%3A6969"],"infoHash":"3ecd8a10986544f2e9bb96bac21b5e2c1fa573a4","infoHashBuffer":{"type":"Buffer","data":[62,205,138,16,152,101,68,242,233,187,150,186,194,27,94,44,31,165,115,164]},"announce":[],"urlList":[]}}